<?xml version="1.0" encoding="utf-8"?>
<!-- Generator: Adobe Illustrator 22.1.0, SVG Export Plug-In . SVG Version: 6.00 Build 0)  -->
<svg version="1.1" id="Слой_1" xmlns="http://www.w3.org/2000/svg" xmlns:xlink="http://www.w3.org/1999/xlink" x="0px" y="0px"
	 viewBox="0 0 96 75.7" style="enable-background:new 0 0 96 75.7;" xml:space="preserve">
<style type="text/css">
	.st0{fill:#883ECA;}
</style>
<title>Artboard 82</title>
<path class="st0" d="M3.1,3.4C1.1,5.5,0,8.2,0,11.1v53.5c0,2.9,1.1,5.6,3.1,7.7l0,0c2.1,2.2,5,3.4,8,3.4h73.8
	c6.1,0,11.1-5,11.1-11.1l0,0V11.1C96,5,91,0,84.9,0H11.1C8.1,0,5.2,1.3,3.1,3.4z M14.9,15.3c1.3-1.4,3.4-1.5,4.9-0.3L48,39.8l0,0
	l28.2-24.7c1.5-1.3,3.7-1.1,4.9,0.3c1.2,1.4,1.1,3.4-0.1,4.7l-16.7,17l16.8,18.8c1.3,1.5,1.1,3.7-0.3,4.9c-1.4,1.2-3.4,1.1-4.7-0.1
	L58.4,43.2l-4.8,4.9c-1.5,1.4-3.5,2.2-5.6,2.2l0,0c-2.1,0-4.1-0.8-5.6-2.2l-4.8-4.9L19.9,60.6c-1.4,1.3-3.6,1.3-4.9,0
	s-1.3-3.4-0.1-4.7l16.8-18.7L15,20.1C13.7,18.8,13.7,16.7,14.9,15.3z"/>
</svg>
