<svg 
 xmlns="http://www.w3.org/2000/svg"
 width="11px" height="130px">

<path fill-rule="evenodd"  fill="rgb(136, 62, 202)"
 d="M10.000,130.000 C9.448,130.000 9.000,129.552 9.000,129.000 L9.000,48.000 C9.000,47.447 9.448,47.000 10.000,47.000 C10.552,47.000 11.000,47.447 11.000,48.000 L11.000,129.000 C11.000,129.552 10.552,130.000 10.000,130.000 ZM-0.000,82.000 L-0.000,1.000 C-0.000,0.447 0.448,-0.000 1.000,-0.000 C1.552,-0.000 2.000,0.447 2.000,1.000 L2.000,82.000 C2.000,82.552 1.552,83.000 1.000,83.000 C0.448,83.000 -0.000,82.552 -0.000,82.000 Z"/>

</svg>